<mxfile host="app.diagrams.net" modified="2022-05-23T15:13:04.514Z" agent="5.0 (Windows NT 10.0; Win64; x64) AppleWebKit/537.36 (KHTML, like Gecko) Chrome/101.0.4951.67 Safari/537.36" etag="5qnAma8AkX0A-H2vBfD8" version="18.1.1" type="github">
  <diagram id="Iqmc-EgJxx6Pn3c3Pdif" name="Page-1">
    <mxGraphModel dx="1422" dy="762" grid="1" gridSize="10" guides="1" tooltips="1" connect="1" arrows="1" fold="1" page="1" pageScale="1" pageWidth="850" pageHeight="1100" math="0" shadow="0">
      <root>
        <mxCell id="0" />
        <mxCell id="1" parent="0" />
        <mxCell id="5YoLbD3leCaj5e2KvmzW-1" value="" style="rounded=0;whiteSpace=wrap;html=1;fontSize=14;" vertex="1" parent="1">
          <mxGeometry x="170" y="30" width="580" height="750" as="geometry" />
        </mxCell>
        <mxCell id="5YoLbD3leCaj5e2KvmzW-2" value="Actor" style="shape=umlActor;verticalLabelPosition=bottom;verticalAlign=top;html=1;outlineConnect=0;" vertex="1" parent="1">
          <mxGeometry x="90" y="270" width="60" height="110" as="geometry" />
        </mxCell>
        <mxCell id="5YoLbD3leCaj5e2KvmzW-3" value="&lt;font style=&quot;font-size: 24px&quot;&gt;Battle_City&lt;/font&gt;" style="text;html=1;strokeColor=none;fillColor=none;align=center;verticalAlign=middle;whiteSpace=wrap;rounded=0;" vertex="1" parent="1">
          <mxGeometry x="395" y="40" width="110" height="30" as="geometry" />
        </mxCell>
        <mxCell id="5YoLbD3leCaj5e2KvmzW-4" value="&lt;font size=&quot;3&quot;&gt;Control&lt;br&gt;&lt;/font&gt;" style="ellipse;whiteSpace=wrap;html=1;fontSize=24;" vertex="1" parent="1">
          <mxGeometry x="240" y="120" width="120" height="80" as="geometry" />
        </mxCell>
        <mxCell id="5YoLbD3leCaj5e2KvmzW-5" value="New game" style="ellipse;whiteSpace=wrap;html=1;fontSize=14;" vertex="1" parent="1">
          <mxGeometry x="210" y="330" width="120" height="80" as="geometry" />
        </mxCell>
        <mxCell id="5YoLbD3leCaj5e2KvmzW-6" value="View game info" style="ellipse;whiteSpace=wrap;html=1;fontSize=14;" vertex="1" parent="1">
          <mxGeometry x="190" y="630" width="120" height="80" as="geometry" />
        </mxCell>
        <mxCell id="5YoLbD3leCaj5e2KvmzW-7" value="" style="endArrow=classic;html=1;rounded=0;fontSize=14;exitX=1;exitY=0.3333333333333333;exitDx=0;exitDy=0;exitPerimeter=0;" edge="1" parent="1" source="5YoLbD3leCaj5e2KvmzW-2" target="5YoLbD3leCaj5e2KvmzW-4">
          <mxGeometry width="50" height="50" relative="1" as="geometry">
            <mxPoint x="400" y="420" as="sourcePoint" />
            <mxPoint x="450" y="370" as="targetPoint" />
          </mxGeometry>
        </mxCell>
        <mxCell id="5YoLbD3leCaj5e2KvmzW-8" value="" style="endArrow=classic;html=1;rounded=0;fontSize=14;exitX=1;exitY=0.3333333333333333;exitDx=0;exitDy=0;exitPerimeter=0;entryX=0;entryY=0.5;entryDx=0;entryDy=0;" edge="1" parent="1" source="5YoLbD3leCaj5e2KvmzW-2" target="5YoLbD3leCaj5e2KvmzW-5">
          <mxGeometry width="50" height="50" relative="1" as="geometry">
            <mxPoint x="400" y="420" as="sourcePoint" />
            <mxPoint x="450" y="370" as="targetPoint" />
          </mxGeometry>
        </mxCell>
        <mxCell id="5YoLbD3leCaj5e2KvmzW-9" value="" style="endArrow=classic;html=1;rounded=0;fontSize=14;entryX=0.058;entryY=0.275;entryDx=0;entryDy=0;entryPerimeter=0;" edge="1" parent="1" source="5YoLbD3leCaj5e2KvmzW-2" target="5YoLbD3leCaj5e2KvmzW-6">
          <mxGeometry width="50" height="50" relative="1" as="geometry">
            <mxPoint x="150" y="310" as="sourcePoint" />
            <mxPoint x="450" y="370" as="targetPoint" />
          </mxGeometry>
        </mxCell>
        <mxCell id="5YoLbD3leCaj5e2KvmzW-10" value="Move" style="ellipse;whiteSpace=wrap;html=1;fontSize=14;" vertex="1" parent="1">
          <mxGeometry x="540" y="70" width="120" height="80" as="geometry" />
        </mxCell>
        <mxCell id="5YoLbD3leCaj5e2KvmzW-11" value="Shoot" style="ellipse;whiteSpace=wrap;html=1;fontSize=14;" vertex="1" parent="1">
          <mxGeometry x="570" y="180" width="120" height="80" as="geometry" />
        </mxCell>
        <mxCell id="5YoLbD3leCaj5e2KvmzW-12" value="&lt;font style=&quot;font-size: 11px;&quot;&gt;&amp;lt;&amp;lt;extend&amp;gt;&amp;gt;&lt;/font&gt;" style="endArrow=open;endSize=12;dashed=1;html=1;rounded=0;fontSize=14;exitX=0.033;exitY=0.638;exitDx=0;exitDy=0;exitPerimeter=0;" edge="1" parent="1" source="5YoLbD3leCaj5e2KvmzW-10" target="5YoLbD3leCaj5e2KvmzW-4">
          <mxGeometry width="160" relative="1" as="geometry">
            <mxPoint x="437.5" y="140" as="sourcePoint" />
            <mxPoint x="597.5" y="140" as="targetPoint" />
          </mxGeometry>
        </mxCell>
        <mxCell id="5YoLbD3leCaj5e2KvmzW-13" value="&lt;font style=&quot;font-size: 11px;&quot;&gt;&amp;lt;&amp;lt;extend&amp;gt;&amp;gt;&lt;/font&gt;" style="endArrow=open;endSize=12;dashed=1;html=1;rounded=0;fontSize=14;entryX=0.95;entryY=0.738;entryDx=0;entryDy=0;entryPerimeter=0;" edge="1" parent="1" target="5YoLbD3leCaj5e2KvmzW-4">
          <mxGeometry x="0.1234" y="-7" width="160" relative="1" as="geometry">
            <mxPoint x="570" y="220" as="sourcePoint" />
            <mxPoint x="500" y="400" as="targetPoint" />
            <Array as="points" />
            <mxPoint as="offset" />
          </mxGeometry>
        </mxCell>
        <mxCell id="5YoLbD3leCaj5e2KvmzW-14" value="View HP" style="ellipse;whiteSpace=wrap;html=1;fontSize=14;" vertex="1" parent="1">
          <mxGeometry x="510" y="480" width="140" height="80" as="geometry" />
        </mxCell>
        <mxCell id="5YoLbD3leCaj5e2KvmzW-15" value="View number of lvl" style="ellipse;whiteSpace=wrap;html=1;fontSize=14;" vertex="1" parent="1">
          <mxGeometry x="510" y="690" width="140" height="80" as="geometry" />
        </mxCell>
        <mxCell id="5YoLbD3leCaj5e2KvmzW-16" value="&lt;font style=&quot;font-size: 11px;&quot;&gt;&amp;lt;&amp;lt;extend&amp;gt;&amp;gt;&lt;/font&gt;" style="endArrow=open;endSize=12;dashed=1;html=1;rounded=0;fontSize=14;" edge="1" parent="1" source="5YoLbD3leCaj5e2KvmzW-14" target="5YoLbD3leCaj5e2KvmzW-6">
          <mxGeometry width="160" relative="1" as="geometry">
            <mxPoint x="340" y="540" as="sourcePoint" />
            <mxPoint x="500" y="540" as="targetPoint" />
          </mxGeometry>
        </mxCell>
        <mxCell id="5YoLbD3leCaj5e2KvmzW-17" value="&lt;font style=&quot;font-size: 11px;&quot;&gt;&amp;lt;&amp;lt;extend&amp;gt;&amp;gt;&lt;/font&gt;" style="endArrow=open;endSize=12;dashed=1;html=1;rounded=0;fontSize=14;" edge="1" parent="1" source="5YoLbD3leCaj5e2KvmzW-15" target="5YoLbD3leCaj5e2KvmzW-6">
          <mxGeometry width="160" relative="1" as="geometry">
            <mxPoint x="312.42640687119274" y="681.7157287525381" as="sourcePoint" />
            <mxPoint x="520" y="560" as="targetPoint" />
          </mxGeometry>
        </mxCell>
        <mxCell id="5YoLbD3leCaj5e2KvmzW-18" value="View number of targets" style="ellipse;whiteSpace=wrap;html=1;fontSize=14;" vertex="1" parent="1">
          <mxGeometry x="540" y="590" width="160" height="80" as="geometry" />
        </mxCell>
        <mxCell id="5YoLbD3leCaj5e2KvmzW-19" value="&lt;font style=&quot;font-size: 11px;&quot;&gt;&amp;lt;&amp;lt;extend&amp;gt;&amp;gt;&lt;/font&gt;" style="endArrow=open;endSize=12;dashed=1;html=1;rounded=0;fontSize=14;" edge="1" parent="1" source="5YoLbD3leCaj5e2KvmzW-18" target="5YoLbD3leCaj5e2KvmzW-6">
          <mxGeometry width="160" relative="1" as="geometry">
            <mxPoint x="340" y="390" as="sourcePoint" />
            <mxPoint x="500" y="390" as="targetPoint" />
          </mxGeometry>
        </mxCell>
        <mxCell id="5YoLbD3leCaj5e2KvmzW-20" value="Solo game" style="ellipse;whiteSpace=wrap;html=1;" vertex="1" parent="1">
          <mxGeometry x="450" y="230" width="120" height="80" as="geometry" />
        </mxCell>
        <mxCell id="5YoLbD3leCaj5e2KvmzW-21" value="Co-op (client)&amp;nbsp;" style="ellipse;whiteSpace=wrap;html=1;" vertex="1" parent="1">
          <mxGeometry x="440" y="400" width="120" height="80" as="geometry" />
        </mxCell>
        <mxCell id="5YoLbD3leCaj5e2KvmzW-22" value="Co-op (host)" style="ellipse;whiteSpace=wrap;html=1;" vertex="1" parent="1">
          <mxGeometry x="520" y="320" width="120" height="80" as="geometry" />
        </mxCell>
        <mxCell id="5YoLbD3leCaj5e2KvmzW-23" value="&lt;font style=&quot;font-size: 11px;&quot;&gt;&amp;lt;&amp;lt;include&amp;gt;&amp;gt;&lt;/font&gt;" style="endArrow=open;endSize=12;dashed=1;html=1;rounded=0;" edge="1" parent="1" source="5YoLbD3leCaj5e2KvmzW-5" target="5YoLbD3leCaj5e2KvmzW-20">
          <mxGeometry width="160" relative="1" as="geometry">
            <mxPoint x="340" y="390" as="sourcePoint" />
            <mxPoint x="500" y="390" as="targetPoint" />
            <Array as="points">
              <mxPoint x="400" y="310" />
            </Array>
          </mxGeometry>
        </mxCell>
        <mxCell id="5YoLbD3leCaj5e2KvmzW-24" value="&lt;font style=&quot;font-size: 11px;&quot;&gt;&amp;lt;&amp;lt;include&amp;gt;&amp;gt;&lt;/font&gt;" style="endArrow=open;endSize=12;dashed=1;html=1;rounded=0;" edge="1" parent="1" source="5YoLbD3leCaj5e2KvmzW-5" target="5YoLbD3leCaj5e2KvmzW-22">
          <mxGeometry width="160" relative="1" as="geometry">
            <mxPoint x="369.9230176602707" y="337.8119921509908" as="sourcePoint" />
            <mxPoint x="467.32626562513565" y="299.1540852272234" as="targetPoint" />
            <Array as="points" />
          </mxGeometry>
        </mxCell>
        <mxCell id="5YoLbD3leCaj5e2KvmzW-25" value="&lt;font style=&quot;font-size: 11px;&quot;&gt;&amp;lt;&amp;lt;include&amp;gt;&amp;gt;&lt;/font&gt;" style="endArrow=open;endSize=12;dashed=1;html=1;rounded=0;" edge="1" parent="1" source="5YoLbD3leCaj5e2KvmzW-5" target="5YoLbD3leCaj5e2KvmzW-21">
          <mxGeometry width="160" relative="1" as="geometry">
            <mxPoint x="379.9230176602707" y="347.8119921509908" as="sourcePoint" />
            <mxPoint x="491.06728509314803" y="362.4889677079502" as="targetPoint" />
            <Array as="points" />
          </mxGeometry>
        </mxCell>
      </root>
    </mxGraphModel>
  </diagram>
</mxfile>
